# This file uses centimeters as units for non-parametric coordinates

mtllib ugly_cube.mtl
v -0.364355 0.011065 0.327924
v -0.327924 -0.025367 0.327924
v -0.327924 0.011065 0.364355
v 0.327924 -0.025367 0.327924
v 0.364355 0.011065 0.327924
v 0.327924 0.011065 0.364355
v -0.327924 0.703344 0.327924
v -0.364355 0.666912 0.327924
v -0.327924 0.666912 0.364355
v 0.364355 0.666912 0.327924
v 0.327924 0.703344 0.327924
v 0.327924 0.666912 0.364355
v -0.327924 0.666912 -0.364355
v -0.364355 0.666912 -0.327924
v -0.327924 0.703344 -0.327924
v 0.364355 0.666912 -0.327924
v 0.327924 0.666912 -0.364355
v 0.327924 0.703344 -0.327924
v -0.327924 -0.025367 -0.327924
v -0.364355 0.011065 -0.327924
v -0.327924 0.011065 -0.364355
v 0.364355 0.011065 -0.327924
v 0.327924 -0.025367 -0.327924
v 0.327924 0.011065 -0.364355
vt 0.387499 0.762499
vt 0.612501 0.987501
vt 0.362501 0.237501
vt 0.137499 0.237501
vt 0.137499 0.012499
vt 0.362501 0.012499
vt 0.862501 0.012499
vt 0.862501 0.237501
vt 0.637499 0.237501
vt 0.637499 0.012499
vt 0.387499 0.262499
vt 0.387499 0.512499
vt 0.387499 0.987501
vt 0.375000 0.987501
vt 0.375000 0.762499
vt 0.375000 0.012499
vt 0.375000 0.237501
vt 0.625000 0.987501
vt 0.612501 0.762499
vt 0.625000 0.762499
vt 0.612501 0.012499
vt 0.375000 0.262499
vt 0.375000 0.487501
vt 0.387499 0.250000
vt 0.612501 0.237501
vt 0.612501 0.250000
vt 0.612501 0.262499
vt 0.625000 0.262499
vt 0.375000 0.512499
vt 0.387499 0.500000
vt 0.612501 0.487501
vt 0.612501 0.500000
vt 0.612501 0.512499
vt 0.625000 0.512499
vt 0.625000 0.737501
vt 0.387499 0.750000
vt 0.612501 0.737501
vt 0.387499 0.000000
vt 0.387499 0.012499
vt 0.612501 0.000000
vt 0.625000 0.012499
vt 0.387499 0.237501
vt 0.625000 0.237501
vt 0.387499 0.487501
vt 0.625000 0.487501
vt 0.375000 0.737501
vt 0.387499 0.737501
vt 0.612501 0.750000
vn -0.051613 -0.997333 -0.051613
vn 0.051613 -0.997333 -0.051613
vn -0.051613 -0.997333 0.051613
vn 0.051613 -0.997333 0.051613
vn 0.051613 -0.051613 0.997333
vn 0.051613 0.051613 0.997333
vn -0.051613 -0.051613 0.997333
vn -0.051613 0.051613 0.997333
vn -0.997333 0.051613 0.051613
vn -0.997333 0.051613 -0.051613
vn -0.997333 -0.051613 0.051613
vn -0.997333 -0.051613 -0.051613
vn 0.997333 -0.051613 -0.051613
vn 0.997333 0.051613 -0.051613
vn 0.997333 -0.051613 0.051613
vn 0.997333 0.051613 0.051613
vn 0.051613 0.997333 0.051613
vn 0.051613 0.997333 -0.051613
vn -0.051613 0.997333 0.051613
vn -0.051613 0.997333 -0.051613
vn 0.051613 0.051613 -0.997333
vn 0.051613 -0.051613 -0.997333
vn -0.051613 0.051613 -0.997333
vn -0.051613 -0.051613 -0.997333
s 1
g pCube1
usemtl initialShadingGroup
f 19/1/1 23/19/2 2/13/3
f 2/13/3 23/19/2 4/2/4
f 6/21/5 12/25/6 3/39/7
f 3/39/7 12/25/6 9/42/8
f 8/3/9 14/4/10 1/6/11
f 1/6/11 14/4/10 20/5/12
f 22/7/13 16/8/14 5/10/15
f 5/10/15 16/8/14 10/9/16
f 11/27/17 18/31/18 7/11/19
f 7/11/19 18/31/18 15/44/20
f 17/33/21 24/37/22 13/12/23
f 13/12/23 24/37/22 21/47/24
f 2/13/3 1/14/11 19/1/1
f 19/1/1 1/14/11 20/15/12
f 3/39/7 2/38/3 6/21/5
f 6/21/5 2/38/3 4/40/4
f 1/16/11 3/39/7 8/17/9
f 8/17/9 3/39/7 9/42/8
f 5/18/15 4/2/4 22/20/13
f 22/20/13 4/2/4 23/19/2
f 6/21/5 5/41/15 12/25/6
f 12/25/6 5/41/15 10/43/16
f 8/22/9 7/11/19 14/23/10
f 14/23/10 7/11/19 15/44/20
f 7/24/19 9/42/8 11/26/17
f 11/26/17 9/42/8 12/25/6
f 11/27/17 10/28/16 18/31/18
f 18/31/18 10/28/16 16/45/14
f 14/29/10 13/12/23 20/46/12
f 20/46/12 13/12/23 21/47/24
f 13/30/23 15/44/20 17/32/21
f 17/32/21 15/44/20 18/31/18
f 17/33/21 16/34/14 24/37/22
f 24/37/22 16/34/14 22/35/13
f 19/36/1 21/47/24 23/48/2
f 23/48/2 21/47/24 24/37/22
f 1/16/11 2/38/3 3/39/7
f 4/40/4 5/41/15 6/21/5
f 7/24/19 8/17/9 9/42/8
f 10/43/16 11/26/17 12/25/6
f 13/30/23 14/23/10 15/44/20
f 16/45/14 17/32/21 18/31/18
f 19/36/1 20/46/12 21/47/24
f 22/35/13 23/48/2 24/37/22
